<svg width="512" height="512" fill="none" xmlns="http://www.w3.org/2000/svg"><path d="M76.169 309.71c-.354-1.042-.445-1.77-.435-1.77 0-.01.01-.182.263-.638.445-.88.82-1.71.85-2.863v-14.317c.1-2.904.151-5.919.151-8.894.172-3.41.921-5.747 1.781-6.92.87-.436 4.29-1.144 9.339-1.063 1.123-.01 3.329.617 6.202 2.186.81 1.71 1.346 4.472 1.346 8.236 0 1.477-.08 3.126-.253 4.917.081 1.538.415 2.054.91 3.4.416 1.001.547 1.71.517 1.73.01.344-.112 1.659-.365 3.561-.273 2.014-.414 3.198-.424 4.058v27.591H75.996c.01-.334.01-.698.01-1.113 0-1.568.141-4.006.404-7.264.294-3.329.436-5.859.436-7.69-.04-1.062-.284-1.841-.678-3.147zm34.35-43.8c-1.902-2.004-3.703-3.916-5.494-5.808l-.293-.314-.375-.192c-2.489-1.295-5.868-2.54-10.3-3.845-4.047-1.163-6.172-1.781-7.841-1.841h-2.702c-2.711.06-6.425 1.325-12.516 3.673-5.342 2.013-9.258 4.765-11.19 8.691-.476.961-.506 1.578-.86 3.177-.314 1.477-.668 3.541-1.093 6.172-.86 5.322-1.285 8.236-1.295 9.683v81.48l.405.627c1.831 2.914 5.23 4.24 8.924 4.179 4.027 0 6.89-.223 9.045-.911l1.75-.576v-1.832c0-.263.041-1.477.153-3.339.01-.152.03-.354.03-.637a4.182 4.182 0 00-.597-2.348c.111-2.033.172-3.865.172-5.494 0-1.831-.06-3.42-.233-4.796.05-.495.213-.941 1.052-1.699a9.92 9.92 0 011.275-.982c.05-.02.112-.04.142-.061 7.65 0 13.497.264 17.403.759.02.597.02 1.194.02 1.801 0 4.725-.374 9.663-1.143 14.833l-.081.617.202.587c.79 2.692 3.278 4.877 6.132 4.877.071 0 .151 0 .232-.01h5.322l.203-.03c2.469-.456 4.411-1.012 6-1.852 1.497-.779 3.045-2.287 3.055-4.452v-89.453c-.101-3.41-2.134-6.546-5.504-10.684zM135.231 331.904l1.478.05-1.478-.071v.021zm34.108 11.959l-.061.051c-.202.576-1.254 2.094-3.055 3.996a149.463 149.463 0 01-2.914 2.995c-.294.283-.526.496-.678.638-1.346.384-3.531.647-6.415.698-.02-.021-.04-.051-.071-.081v-37.578c.021-.233.041-.678.041-1.174 0-1.74-.152-4.138-.445-7.305-.365-3.926-.557-6.334-.537-6.415 0-8.712.203-16.948.628-24.708l-.01-.01a2.33 2.33 0 01.364-.476c.111-.121.202-.212.283-.303h.02l.506-.284h.01-.01.01c.213-.121 2.014-.364 4.634-.334.01-.04 1.164.172 2.935.709 1.274.344 2.347.607 3.278.789.931 2.034 1.487 4.796 1.487 8.317v60.475zm-32.205-11.909l-1.903-.172c0-.03 0-.061.021-.162.02-.081.02-.141.091-.354.03-.101.071-.243.243-.546l2.084 1.234h-.536zm52.573-18.607l.04-.192c-.01-.03.182-.648.617-1.467.547-1.133.972-2.084 1.002-3.38-.051-1.325-.455-2.256-1.022-3.581a12.388 12.388 0 01-.496-1.214c-.03-.102-.05-.183-.06-.223 0-5.848.202-13.123.627-21.825l.061-1.295-.597-.475c.435-2.095.667-3.734.678-5.1-.011-.667-.041-1.275-.274-1.963-2.549-5.787-4.644-10.077-6.404-13.163l-.425-.729-.759-.333c-10.584-4.574-15.562-6.82-18.364-7.032-7.275 0-15.45.698-24.567 2.084l-.425.071-.384.202c-2.176 1.052-3.815 3.39-3.724 5.889 0 .708.112 2.934.314 7.022.213 4.047.314 6.829.314 8.195 0 7.184-.101 18.698-.314 34.553-.101 7.528-.182 13.164-.233 16.927-.03 1.893-.05 3.299-.06 4.24 0 .475-.021.83-.021 1.052v.273l1.498.071h-1.498v26.803c0 .141-.07.9-.222 1.942-.172 1.174-.253 2.135-.253 2.975-.061 2.358.951 4.735 2.904 6.101 1.922 1.356 4.31 1.811 7.082 1.821h20.773c3.632 0 7.305-1.194 10.967-3.359l.243-.152.172-.161c3.653-3.339 6.273-6.051 7.953-8.297 2.661-3.349 4.33-7.366 4.907-11.798l.02-.141.011-.132c.091-4.037.151-7.609.151-10.735 0-3.116-.06-5.777-.162-8.014.092-2.256.253-4.259.456-5.726l.06-.476-.111-.486c-.597-2.266-.87-4.229-.87-5.827 0-1.113.142-2.054.364-2.833l.031-.112zM229.716 309.71c-.354-1.042-.445-1.77-.435-1.77 0-.01 0-.182.243-.638.465-.88.84-1.72.86-2.863v-14.317c.111-2.904.162-5.899.162-8.904.162-3.389.911-5.737 1.781-6.91.87-.436 4.29-1.144 9.328-1.053 1.134-.04 3.329.607 6.203 2.166.819 1.709 1.366 4.482 1.346 8.246 0 1.477-.081 3.126-.243 4.917.081 1.538.404 2.064.9 3.4.425.991.536 1.72.526 1.74 0 .324-.121 1.649-.374 3.551-.273 2.014-.405 3.198-.415 4.058v27.612l-20.054-.011c0-.344.01-.708.01-1.113 0-1.578.132-4.016.405-7.264.283-3.339.425-5.859.425-7.68-.03-1.092-.283-1.882-.668-3.167zm34.341-43.78c-1.892-2.024-3.703-3.936-5.494-5.838l-.304-.314-.364-.182c-2.489-1.295-5.869-2.54-10.29-3.845-4.057-1.163-6.172-1.791-7.852-1.841h-2.701c-2.702.06-6.425 1.325-12.496 3.673-5.352 2.013-9.268 4.765-11.19 8.691-.486.951-.516 1.578-.881 3.177-.303 1.497-.667 3.541-1.092 6.172-.85 5.322-1.285 8.236-1.295 9.693v81.48l.404.627c1.832 2.904 5.221 4.219 8.924 4.169 4.017-.01 6.891-.223 9.046-.911l1.75-.566v-1.842c0-.263.051-1.477.162-3.339.01-.152.03-.354.03-.637a4.242 4.242 0 00-.607-2.358c.122-2.033.182-3.855.182-5.484 0-1.831-.07-3.42-.232-4.796.03-.495.202-.941 1.042-1.699.556-.496 1.012-.82 1.275-.972.06-.03.111-.06.152-.081 7.639.01 13.497.274 17.392.769.01.587.031 1.184.031 1.761 0 4.735-.375 9.693-1.144 14.883l-.091.607.213.587c.779 2.692 3.278 4.877 6.131 4.877h5.535l.212-.05c2.479-.446 4.422-1.002 5.99-1.852 1.508-.759 3.066-2.277 3.066-4.442v-89.453c-.101-3.41-2.135-6.546-5.504-10.664zM321.95 297.775c-.84 3.258-1.427 3.46-2.732 3.561h-12.041c-.516-.03-.748-.081-.991-.273-.941-5.079-1.417-9.693-1.417-13.841.354-9.268 2.479-11.707 7.639-11.919 6.091 0 8.722 1.538 9.279 2.985.151.081.617 4.3.546 10.674.01 4.685-.111 7.801-.283 8.813zm20.013-23.039c-1.487-3.076-2.954-6.152-4.442-9.227-1.244-2.378-2.327-4.169-3.399-5.484-1.103-1.275-2.085-2.489-4.27-2.621-.425.01-.82 0-1.467.213-.152.02-.365.121-.597.283a26.613 26.613 0 01-2.166-1.133c-2.205-1.204-3.531-1.933-5.109-2.206a90.47 90.47 0 00-8.712-.415c-2.701 0-5.494.111-8.408.324a7.202 7.202 0 00-3.996-1.194c-4.108 0-7.457.212-10.118.678l-1.639.283-.86 3.693-.132.547.111.556c.132.567.223 1.528.223 2.823 0 .87-.03 1.862-.101 2.985a257 257 0 01-.405 4.937c-.04.547-.091.972-.121 1.255h-.122v.556l-.961 2.935h.961v93.925l.658.728c2.378 2.257 5.302 2.277 9.966 2.429 2.378 0 4.533-.233 6.486-.719l1.922-.475v-48.718a2.866 2.866 0 001.093-.749c.283-.324.475-.658.607-.992 1.204.061 3.066.172 5.514.334 4.321.263 6.627.395 7.376.395 1.68-.162 2.216-.617 4.412-1.487 2.013-.871 4.796-2.145 8.408-3.855l.516-.243.364-.435c.688-.881 1.346-2.054 2.337-3.916.273-.476.547-.85.708-1.052.031-.031.061-.061.071-.081l.769-.314.425-.921a673.027 673.027 0 003.096-6.849c.344-.78.607-1.366.8-1.781a4.44 4.44 0 01.202-.506c.061-.385.061.273.243-1.133v-22.857l-.243-.516zM405.793 258.252a10.18 10.18 0 00-6.313-2.125l-16.371-.789c-8.084.121-13.781.162-17.251.162h-1.892l-.547 1.811c-1.649 5.504-2.479 11.039-2.479 16.583 0 5.545.638 18.89 1.913 40.28l.263-.01c-.284.516-.486 1.133-.587 1.932v2.53h.061l-1.65 32.701c.021 5.828.081 9.066.365 10.735.253 2.641.779 4.897 1.78 6.739.921 1.791 2.864 3.278 5.039 3.278h.111c.638 0 5.454-.111 14.722-.324 9.238-.212 14.246-.313 14.782-.313 3.228.101 6.304-1.66 7.65-4.584.829-1.639 1.234-3.48 1.224-5.413-.02-1.224-.344-2.337-.84-3.936-.222-.718-.394-1.275-.485-1.669-.051-.193-.092-.344-.102-.435l-.01.01v-2.246l-2.226-.274c-4.644-.536-10.877-.799-18.809-.799-1.558.01-2.6-.212-2.985-.405-.05-.03-.081-.04-.111-.06-.506-3.269-.759-6.921-.759-10.978 0-2.591.111-5.373.324-8.307 0-.152.02-.425.02-.729 0-1.173-.202-2.438-.577-4.006-.05-.253-.111-.486-.162-.709l1.022.334v-7.609c2.692.172 5.262.263 7.71.263 2.722 0 5.312-.111 7.73-.333.749-.011 1.356-.253 2.186-.567.435-.162.759-.212 1.022-.212 2.044.08 4.158-1.164 5.109-2.975.992-1.791 1.295-3.875 1.306-6.374.03-3.269-1.457-6.304-4.007-8.55l-.719-.648h-17.635c-.921 0-1.639-.02-2.095-.03h-.01c-.475-.982-1.335-5.029-1.234-11.008 0 0 .05-.597.152-1.68.101-1.184.273-2.874.485-5.099.304-3.269.496-5.92.587-8.034.091-.02.192-.041.294-.061 1.021-.202 1.77-.273 1.983-.273.485 0 1.113-.051 2.428-.172a9.925 9.925 0 011.103-.071c.273 0 .496.02.658.051.546.071.495.141.536.091l2.701 2.661.85-2.095c.314.091.668.152 1.083.162.961 0 1.862-.222 2.722-.597.414-.172.657-.192.769-.192h5.797l.243-.04c.253-.051.445-.102.556-.112h.769l.688-.536c.891-.698 1.548-1.133 1.65-1.164l1.153-.586.213-1.275c.081-.526.283-1.589.607-3.046.313-1.163.526-2.185.526-3.217.02-2.277-1.255-4.331-3.036-5.656zM448.642 255.307l-1.255-.739c-2.843-1.548-6.961-1.861-13.487-1.932-2.236-.071-4.796.931-5.798 3.248l-.212.475v71.18l.344-.071c-.971 10.887-1.467 18.344-1.467 22.564 0 4.33.546 10.522 1.609 18.718l.273 2.216h2.236c.141-.021.951.081 2.084.344 1.305.263 2.226.435 3.157.445 5.383-.162 8.944-.304 11.332-3.38l.405-.627v-39.126h-1.214c.05-.192.081-.395.101-.617a3.1 3.1 0 00-.132-.911c.668-1.639.951-3.642 1.073-5.808 0-3.581.05-6.991.172-10.35.081-3.633.141-6.81.141-9.562 0-2.762-.04-5.079-.141-7.001.516-23.94.779-36.456.779-37.609v-1.457zM104.962 237.368l-14.975-10.715s31.386-25.659 87.015-25.659c55.618 0 126.515 30.445 180.707 30.445 54.202 0 88.846-20.469 88.846-20.469l1.426 3.967s-35.483 25.527-89.018 23.666c-50.6-1.771-142.744-24.779-179.827-24.779-37.082 0-52.775 12.829-74.174 23.544z" fill="#fff"/><path d="M197.506 147.625l19.295 26.661-2.52-27.815-25.325-41.979-.395-1.71c6.213-4.806 10.432-12.253 10.837-20.59.698-14.53-10.351-26.317-24.729-26.317-14.367 0-26.59 11.787-27.308 26.317-.526 10.917 5.595 20.297 14.762 24.273-.02.273-.04.607-.081.931-2.175 1.74-52.694-4.493-52.694-4.493l1.851 18.243 48.749 8.843c-3.37 35.879-8.327 82.796-8.327 82.796l24.768.9-2.205-36.455 11.858-.911 4.563 32.742 23.069 3.977-16.168-65.413z" fill="#FDC500"/><path d="M294.352 222.957c-.405-.648-8.934-38.013-17.454-71.696l13.69-9.673.809-24.151-27.773 16.745c9.227-4.108 15.976-13.315 16.502-24 .698-14.53-11.16-24.779-25.528-24.779-14.357 0-25.801 10.25-26.519 24.779-.556 11.524 6.273 21.329 16.3 24.88l-.587.233-29.514 11.18 2.52 27.804 20.043-15.075c-4.755 26.751-12.759 58.431-12.759 58.431l21.461.293 3.065-22.897s19.862-3.936 19.528-3.035c-.344.921 3.521 32.681 3.521 32.681s23.261-.82 22.695-1.72" fill="#FDC500"/><path d="M390.745 65.935l-48.708 24.364c3.258-4.32 7.76-11.413 6.991-18.091-1.669-14.459-11.2-23.453-25.578-23.453-14.377 0-25.74 8.913-26.448 23.453-.607 12.283 7.214 22.604 18.344 25.497-8.176 3.714-23.95 19.73-23.95 19.73l-.799 24.162 23.838-20.276c-7.427 37.274-16.765 102.535-16.765 102.535l19.345 6.678s6.162-46.148 5.98-48.495c1.396.92 17.008 2.276 17.008 2.276l39.946 22.725s11.039-18.465 12.435-18.131l-38.256-18.111-5.889-60.82 51.996-25.203-9.49-18.84z" fill="#FDC500"/><path d="M180.382 176.755c-3.319-45.43-7.376-95.777-9.147-120.657-12.829 1.7-23.22 12.738-23.878 26.094-.526 10.917 5.595 20.297 14.762 24.273-.02.283-.04.607-.081.941-2.175 1.73-54.253-4.503-54.253-4.503l3.41 18.243 48.749 8.843c-3.37 35.879-8.317 82.806-8.317 82.806l24.758.89-2.195-36.455 6.192-.475zM252.151 85.554c-13.326 1.508-23.383 10.938-24.071 24.638-.566 11.514 6.273 21.318 16.29 24.88l-.577.232-29.514 11.171 2.52 27.814 20.043-15.086c-4.755 26.752-12.758 58.431-12.758 58.431l21.46.294 3.065-22.897s3.37-.658 7.306-1.397l-3.764-108.08zM331.874 181.437c1.619-48.849-6.85-110.903-6.091-132.606-.769-.05-1.558-.07-2.337-.07-14.378 0-25.74 8.913-26.438 23.442-.617 12.284 7.204 22.604 18.333 25.508-8.165 3.713-23.949 19.73-23.949 19.73l-.799 24.152 23.848-20.267c-7.437 37.275-16.776 102.536-16.776 102.536l19.356 6.668s6.152-46.149 5.98-48.496c4.108 1.659 10.978 2.196 8.873-.597z" fill="#fff"/><path d="M180.406 457.667c0 11.747-.85 17.605-2.55 17.605-.424 0-1.274.111-2.549.324-1.275.212-2.125.313-2.55.313-1.609 0-2.965-.637-4.067-1.912-.172-3.906-.263-9.44-.263-16.583l.637-37.771c0 .334-.081-2.084-.253-7.285-.172-4.745-.253-8.418-.253-10.968 0-1.011-.941-2.468-2.803-4.34h-1.527c-3.056 0-4.968 1.629-5.737 4.856-.172.769-.334 3.248-.506 7.417v57.136c0 6.304-.698 9.45-2.095 9.45H148.363c-.82-.951-1.225-1.892-1.225-2.843 0-.435-.101-.991-.303-1.69-.213-.677-.273-1.193-.192-1.548.313 0 .779-.161 1.406-.516-.142-.172-.202-.475-.162-.9.041-.425-.162-.648-.587-.648-.435 0-.657.041-.657.122-.081 0-.081.05 0 .131v.395-69.318a4.256 4.256 0 00-1.397-1.275c-1.356-.85-3.399-1.275-6.121-1.275-.415 0-.84.091-1.265.253-.435.172-.86.253-1.275.253-.506 0-.809-.182-.89-.567-.091-.384-.182-.577-.253-.577 0-.252.04 1.882.121 6.395.081 2.813-.344 4.776-1.275 5.879.425.253.81.374 1.154.374 0 1.629-.091 4.189-.263 7.68-.172 3.49-.253 5.959-.253 7.406 0 1.791.192 4.462.577 7.993.384 3.531.576 5.383.576 5.555v35.787a50.007 50.007 0 00-.455 1.983c-.121.638-.617.951-1.457.951h-6.253c-2.883 0-4.33-2.165-4.33-6.495 0-.425.151-1.366.455-2.813.293-1.447.445-2.418.445-2.934v-10.331c-.091-4.604-.091-8.256 0-10.978.041-3.996.172-7.184.375-9.561-.425-1.194-.547-3.228-.375-6.122.253-4.937.375-7.113.375-6.516 0-1.78-.203-4.381-.628-7.78-.425-3.4-.647-5.95-.647-7.65 0-3.996.769-7.821 2.296-11.484.86-1.871 2.348-3.703 4.483-5.494.587-.586 2.711-.92 6.384-1.022-.091-.667.334-1.011 1.275-1.011 1.103 0 4.29.465 9.572 1.396 2.549 2.894 4.472 4.341 5.737 4.341.435 0 1.426-.577 3.005-1.72 1.578-1.154 2.701-1.842 3.379-2.105 2.732-.941 4.3-1.406 4.725-1.406.516 0 2.175.465 4.988 1.406 3.319 1.022 5.403 1.619 6.253 1.781 3.147 4.775 4.725 8.175 4.725 10.219v35.463c-.425.597-1.153 1.144-2.165 1.66v.496c.253.182.577.435.951.779.385.334.536 1.022.445 2.033v7.407c0 1.103.132 2.995.385 5.676.253 2.671.384 4.189.384 4.523z" fill="#FDC500"/><path d="M180.406 457.667c0 11.747-.85 17.605-2.55 17.605-.424 0-1.274.111-2.549.324-1.275.212-2.125.313-2.55.313-1.609 0-2.965-.637-4.067-1.912-.172-3.906-.263-9.44-.263-16.583l.637-37.771c0 .334-.081-2.084-.253-7.285-.172-4.745-.253-8.418-.253-10.968 0-1.011-.941-2.468-2.803-4.34h-1.527c-3.056 0-4.968 1.629-5.737 4.856-.172.769-.334 3.248-.506 7.417v57.136c0 6.304-.698 9.45-2.095 9.45H148.363c-.82-.951-1.225-1.892-1.225-2.843 0-.435-.101-.991-.303-1.69-.213-.677-.273-1.193-.192-1.548.313 0 .779-.161 1.406-.516-.142-.172-.202-.475-.162-.9.041-.425-.162-.648-.587-.648-.435 0-.657.041-.657.122-.081 0-.081.05 0 .131v.395-69.318a4.256 4.256 0 00-1.397-1.275c-1.356-.85-3.399-1.275-6.121-1.275-.415 0-.84.091-1.265.253-.435.172-.86.253-1.275.253-.506 0-.809-.182-.89-.567-.091-.384-.182-.577-.253-.577 0-.252.04 1.882.121 6.395.081 2.813-.344 4.776-1.275 5.879.425.253.81.374 1.154.374 0 1.629-.091 4.189-.263 7.68-.172 3.49-.253 5.959-.253 7.406 0 1.791.192 4.462.577 7.993.384 3.531.576 5.383.576 5.555v35.787a50.007 50.007 0 00-.455 1.983c-.121.638-.617.951-1.457.951h-6.253c-2.883 0-4.33-2.165-4.33-6.495 0-.425.151-1.366.455-2.813.293-1.447.445-2.418.445-2.934v-10.331c-.091-4.604-.091-8.256 0-10.978.041-3.996.172-7.184.375-9.561-.425-1.194-.547-3.228-.375-6.122.253-4.937.375-7.113.375-6.516 0-1.78-.203-4.381-.628-7.78-.425-3.4-.647-5.95-.647-7.65 0-3.996.769-7.821 2.296-11.484.86-1.871 2.348-3.703 4.483-5.494.587-.586 2.711-.92 6.384-1.022-.091-.667.334-1.011 1.275-1.011 1.103 0 4.29.465 9.572 1.396 2.549 2.894 4.472 4.341 5.737 4.341.435 0 1.426-.577 3.005-1.72 1.578-1.154 2.701-1.842 3.379-2.105 2.732-.941 4.3-1.406 4.725-1.406.516 0 2.175.465 4.988 1.406 3.319 1.022 5.403 1.619 6.253 1.781 3.147 4.775 4.725 8.175 4.725 10.219v35.463c-.425.597-1.153 1.144-2.165 1.66v.496c.253.182.577.435.951.779.385.334.536 1.022.445 2.033v7.407c0 1.103.132 2.995.385 5.676.253 2.671.384 4.189.384 4.523z" stroke="#FDC500" stroke-width=".289"/><path d="M208.942 431.709c-.769-.769-1.143-1.234-1.143-1.406h-2.166c0 1.275.162 2.59.506 3.946.425-1.69 1.356-2.54 2.803-2.54zm-5.868 3.177c-.678.436-1.184.517-1.518.253.678-.677 1.022-1.517 1.022-2.539-1.022.516-1.629 1.487-1.791 2.924a31.262 31.262 0 00-.122 2.681h-.768c-.516 1.103-.253 2.469.768 4.078 1.609-2.459 2.409-4.928 2.409-7.397zm21.025-48.019c1.447 0 2.721.425 3.824 1.274 1.103.85 1.66 1.832 1.66 2.925 0 .516-.132 1.234-.385 2.165-.253 1.194-.435 2.033-.506 2.549-.344.173-.89.557-1.659 1.144-.091 0-.344.05-.769.131h-4.462c-.425 0-.88.112-1.396.314-.506.212-.972.324-1.397.324-.354 0-.809-.213-1.406-.638-.334-.172-.637.041-.89.638-.344-.334-.85-.557-1.528-.638-.516-.081-1.144-.081-1.913 0-1.021.081-1.618.132-1.79.132-.415 0-1.073.081-1.973.253-.891.162-1.508.253-1.842.253 0 1.77-.172 4.462-.506 8.044-.344 3.591-.516 5.473-.516 5.645 0 6.506.719 10.098 2.165 10.766.172.091 1.022.131 2.55.131h5.474c0 1.275.132 2.044.385 2.297.252-.253.384-1.022.384-2.297.172 0 .597.385 1.275 1.144.253-.415.384-.8.384-1.144h5.474c1.7 1.528 2.55 3.309 2.55 5.353 0 3.652-1.042 5.484-3.127 5.484a4.4 4.4 0 00-1.558.303c-.546.223-.941.324-1.194.324-3.753.344-8.043.344-12.88 0-.496.263-.951.688-1.366 1.285v4.088c-.769-.253-1.153.091-1.153 1.022 0 .263.182 1.113.516 2.57.344 1.447.465 2.509.384 3.187-.435 6.243-.303 11.565.385 15.996.172 1.366 1.659 2.054 4.482 2.054 6.324 0 11.282.213 14.873.638 0 .334.183 1.103.567 2.286.385 1.194.587 2.034.587 2.55 0 1.275-.263 2.418-.769 3.43-.85 1.71-2.297 2.55-4.341 2.55-.506 0-4.472.091-11.909.263-7.426.162-11.352.253-11.777.253-1.953 0-3.136-2.125-3.572-6.374-.172-.931-.252-3.643-.252-8.145l1.396-27.774c.091.253.303.627.637 1.143.344-.263.516-.597.516-1.022 0-.506-.425-.769-1.275-.769 0-.587.759-1.265 2.297-2.034 0-1.011-.263-1.274-.769-.758-.85 0-1.275.394-1.275 1.143-1.022-17.16-1.527-27.895-1.527-32.236 0-4.239.637-8.489 1.912-12.738 2.803 0 7.386-.041 13.75-.132l13.255.648z" fill="#FDC500"/><path d="M208.942 431.709c-.769-.769-1.143-1.234-1.143-1.406h-2.166c0 1.275.162 2.59.506 3.946.425-1.69 1.356-2.54 2.803-2.54zm-5.868 3.177c-.678.436-1.184.517-1.518.253.678-.677 1.022-1.517 1.022-2.539-1.022.516-1.629 1.487-1.791 2.924a31.262 31.262 0 00-.122 2.681h-.768c-.516 1.103-.253 2.469.768 4.078 1.609-2.459 2.409-4.928 2.409-7.397v0zm21.025-48.019c1.447 0 2.721.425 3.824 1.274 1.103.85 1.66 1.832 1.66 2.925 0 .516-.132 1.234-.385 2.165-.253 1.194-.435 2.033-.506 2.549-.344.173-.89.557-1.659 1.144-.091 0-.344.05-.769.131h-4.462c-.425 0-.88.112-1.396.314-.506.212-.972.324-1.397.324-.354 0-.809-.213-1.406-.638-.334-.172-.637.041-.89.638-.344-.334-.85-.557-1.528-.638-.516-.081-1.144-.081-1.913 0-1.021.081-1.618.132-1.79.132-.415 0-1.073.081-1.973.253-.891.162-1.508.253-1.842.253 0 1.77-.172 4.462-.506 8.044-.344 3.591-.516 5.473-.516 5.645 0 6.506.719 10.098 2.165 10.766.172.091 1.022.131 2.55.131h5.474c0 1.275.132 2.044.385 2.297.252-.253.384-1.022.384-2.297.172 0 .597.385 1.275 1.144.253-.415.384-.8.384-1.144h5.474c1.7 1.528 2.55 3.309 2.55 5.353 0 3.652-1.042 5.484-3.127 5.484a4.4 4.4 0 00-1.558.303c-.546.223-.941.324-1.194.324-3.753.344-8.043.344-12.88 0-.496.263-.951.688-1.366 1.285v4.088c-.769-.253-1.153.091-1.153 1.022 0 .263.182 1.113.516 2.57.344 1.447.465 2.509.384 3.187-.435 6.243-.303 11.565.385 15.996.172 1.366 1.659 2.054 4.482 2.054 6.324 0 11.282.213 14.873.638 0 .334.183 1.103.567 2.286.385 1.194.587 2.034.587 2.55 0 1.275-.263 2.418-.769 3.43-.85 1.71-2.297 2.55-4.341 2.55-.506 0-4.472.091-11.909.263-7.426.162-11.352.253-11.777.253-1.953 0-3.136-2.125-3.572-6.374-.172-.931-.252-3.643-.252-8.145l1.396-27.774c.091.253.303.627.637 1.143.344-.263.516-.597.516-1.022 0-.506-.425-.769-1.275-.769 0-.587.759-1.265 2.297-2.034 0-1.011-.263-1.274-.769-.758-.85 0-1.275.394-1.275 1.143-1.022-17.16-1.527-27.895-1.527-32.236 0-4.239.637-8.489 1.912-12.738 2.803 0 7.386-.041 13.75-.132l13.255.648z" stroke="#FDC500" stroke-width=".289"/><path d="M266.138 499.991l-2.165-.759c.344-.172.849-.475 1.527-.9.425.769.638 1.315.638 1.659zm20.772-100.755c0 .182-.233 1.751-.718 4.725-.446 2.975-.688 5.393-.688 7.275 0 .668.081 1.892.253 3.633.172 1.74.263 2.994.263 3.763 0 .425-.091 1.356-.263 2.813-.172 1.437-.253 2.59-.253 3.44 0 .435.04 1.235.151 2.419.102 1.193.152 2.084.152 2.681 0 7.234.071 13.487.213 18.748 0 1.032-.476 1.842-1.407 2.429.931 1.113 1.407 2.044 1.407 2.802 0 .344-.81 3.198-2.408 8.56-2.793 8.924-8.196 13.386-16.209 13.386h-3.42c-3.208 0-6.577-1.477-10.128-4.452-3.208-2.812-5.444-5.777-6.709-8.924-.425-2.549-1.224-6.323-2.408-11.332l.638-63.703 1.659-1.396c1.862.081 3.481.081 4.836 0h2.044c.496 0 1.346.546 2.54 1.649.85 2.287 1.224 4.908 1.153 7.872-.597 25.315-.384 44.185.628 56.63 0 .759-.253 2.247-.759 4.442 2.337 4.837 5.443 7.245 9.288 7.245.496 0 .941-.112 1.326-.324.374-.213.809-.314 1.305-.314.506 0 .749.213.749.638.091.678.182 1.062.263 1.143.242-.172 1.538-1.821 3.895-4.968-.334-1.184-.223-1.781.374-1.781-.435-5.949-.435-11.504 0-16.684.263 0 .618-.091 1.083-.263.455-.162.83-.253 1.072-.253.172-.162.264-.162.264 0l-.122.121c-.162-.071-.324-.465-.486-1.143-.08.081-.242.02-.485-.182-.233-.223-.445-.324-.597-.324-.253 0-.486.121-.729.384v-40.097c0-.678-.151-1.973-.445-3.895-.293-1.913-.445-3.086-.445-3.511 0-4.766 1.609-7.154 4.836-7.154 4.159 0 6.698.597 7.65 1.791.414 6.202.637 10.239.637 12.111" fill="#FDC500"/><path d="M266.138 499.991l-2.165-.759c.344-.172.849-.475 1.527-.9.425.769.638 1.315.638 1.659zm20.772-100.755c0 .182-.233 1.751-.718 4.725-.446 2.975-.688 5.393-.688 7.275 0 .668.081 1.892.253 3.633.172 1.74.263 2.994.263 3.763 0 .425-.091 1.356-.263 2.813-.172 1.437-.253 2.59-.253 3.44 0 .435.04 1.235.151 2.419.102 1.193.152 2.084.152 2.681 0 7.234.071 13.487.213 18.748 0 1.032-.476 1.842-1.407 2.429.931 1.113 1.407 2.044 1.407 2.802 0 .344-.81 3.198-2.408 8.56-2.793 8.924-8.196 13.386-16.209 13.386h-3.42c-3.208 0-6.577-1.477-10.128-4.452-3.208-2.812-5.444-5.777-6.709-8.924-.425-2.549-1.224-6.323-2.408-11.332l.638-63.703 1.659-1.396c1.862.081 3.481.081 4.836 0h2.044c.496 0 1.346.546 2.54 1.649.85 2.287 1.224 4.908 1.153 7.872-.597 25.315-.384 44.185.628 56.63 0 .759-.253 2.247-.759 4.442 2.337 4.837 5.443 7.245 9.288 7.245.496 0 .941-.112 1.326-.324.374-.213.809-.314 1.305-.314.506 0 .749.213.749.638.091.678.182 1.062.263 1.143.242-.172 1.538-1.821 3.895-4.968-.334-1.184-.223-1.781.374-1.781-.435-5.949-.435-11.504 0-16.684.263 0 .618-.091 1.083-.263.455-.162.83-.253 1.072-.253.172-.162.264-.162.264 0l-.122.121c-.162-.071-.324-.465-.486-1.143-.08.081-.242.02-.485-.182-.233-.223-.445-.324-.597-.324-.253 0-.486.121-.729.384v-40.097c0-.678-.151-1.973-.445-3.895-.293-1.913-.445-3.086-.445-3.511 0-4.766 1.609-7.154 4.836-7.154 4.159 0 6.698.597 7.65 1.791.414 6.202.637 10.239.637 12.111v0z" stroke="#FDC500" stroke-width=".289"/><path d="M337.475 408.514h-1.528v.891h1.528v-.891zm5.352 35.241c0-.587.091 1.579.263 6.516.071 4.169.071 7.315 0 9.44 0 .506-1.072 2.985-3.197 7.397-.334.172-.799.809-1.396 1.912-.85 1.366-1.447 2.256-1.781 2.691-5.697 2.792-8.793 4.199-9.309 4.199h-4.583c-3.815 0-7.943-1.436-12.354-4.35-4.756-3.066-7.143-6.263-7.143-9.592 0-.587.091-1.194.263-1.791a35.211 35.211 0 01-1.275-9.46c0-3.663.688-5.839 2.033-6.527.425-.172 2.803-.253 7.144-.253 2.367 0 3.561 2.863 3.561 8.59v8.075c.334.688 1.791 1.497 4.361 2.428 2.57.951 4.189 1.417 4.877 1.417h2.519c3.036 0 4.553-2.459 4.553-7.397 0-4.684-.172-9.531-.516-14.549-.081-.688-.738-1.589-1.973-2.742-1.244-1.144-2.418-1.933-3.521-2.358-2.559-.941-6.192-2.55-10.887-4.857-2.468-1.608-5.494-4.502-9.075-8.671-2.044-2.468-3.076-8.297-3.076-17.484 0-3.389.253-6.546.758-9.449.172-1.265 1.872-3.522 5.13-6.76 3.238-3.227 5.636-4.846 7.154-4.846 4.472 0 7.76.091 9.875.253 4.978.344 7.679 1.75 8.104 4.199.85-.071 1.943.051 3.289.385 1.862 1.032 3.328 3.065 4.431 6.121 0 .597.122 1.527.375 2.802 1.103 2.125 1.659 4.918 1.659 8.409-.172 1.861-.668 4.077-1.477 6.627-1.143.506-1.599.759-1.346.759l-1.356-1.144-2.327.506.253-.759c.091-.344.051-.637-.121-.89-.597 0-.891.546-.891 1.649-1.791.091-3.045-.394-3.763-1.467-.729-1.052-1.134-2.944-1.215-5.666v-6.243c0-1.012-.081-1.952-.242-2.802-2.479-2.115-4.979-3.178-7.518-3.178-1.447 0-3.187.334-5.231 1.012-2.55.941-3.693 2.004-3.44 3.198.425 1.791.637 4.3.637 7.517 0 .182-.131.516-.384 1.022a3.705 3.705 0 00-.375 1.669c0 .243.142.851.446 1.781.293.931.404 1.578.313 1.912-.06 1.103-.192 2.763-.384 4.978 1.791 2.813 4.674 5.11 8.671 6.891 5.514 2.55 8.651 4.088 9.42 4.604 2.124 1.518 4.29 3.733 6.506 6.627 2.367 3.147 3.561 5.696 3.561 7.649" fill="#FDC500"/><path d="M337.475 408.514h-1.528v.891h1.528v-.891zm5.352 35.241c0-.587.091 1.579.263 6.516.071 4.169.071 7.315 0 9.44 0 .506-1.072 2.985-3.197 7.397-.334.172-.799.809-1.396 1.912-.85 1.366-1.447 2.256-1.781 2.691-5.697 2.792-8.793 4.199-9.309 4.199h-4.583c-3.815 0-7.943-1.436-12.354-4.35-4.756-3.066-7.143-6.263-7.143-9.592 0-.587.091-1.194.263-1.791a35.211 35.211 0 01-1.275-9.46c0-3.663.688-5.839 2.033-6.527.425-.172 2.803-.253 7.144-.253 2.367 0 3.561 2.863 3.561 8.59v8.075c.334.688 1.791 1.497 4.361 2.428 2.57.951 4.189 1.417 4.877 1.417h2.519c3.036 0 4.553-2.459 4.553-7.397 0-4.684-.172-9.531-.516-14.549-.081-.688-.738-1.589-1.973-2.742-1.244-1.144-2.418-1.933-3.521-2.358-2.559-.941-6.192-2.55-10.887-4.857-2.468-1.608-5.494-4.502-9.075-8.671-2.044-2.468-3.076-8.297-3.076-17.484 0-3.389.253-6.546.758-9.449.172-1.265 1.872-3.522 5.13-6.76 3.238-3.227 5.636-4.846 7.154-4.846 4.472 0 7.76.091 9.875.253 4.978.344 7.679 1.75 8.104 4.199.85-.071 1.943.051 3.289.385 1.862 1.032 3.328 3.065 4.431 6.121 0 .597.122 1.527.375 2.802 1.103 2.125 1.659 4.918 1.659 8.409-.172 1.861-.668 4.077-1.477 6.627-1.143.506-1.599.759-1.346.759l-1.356-1.144-2.327.506.253-.759c.091-.344.051-.637-.121-.89-.597 0-.891.546-.891 1.649-1.791.091-3.045-.394-3.763-1.467-.729-1.052-1.134-2.944-1.215-5.666v-6.243c0-1.012-.081-1.952-.242-2.802-2.479-2.115-4.979-3.178-7.518-3.178-1.447 0-3.187.334-5.231 1.012-2.55.941-3.693 2.004-3.44 3.198.425 1.791.637 4.3.637 7.517 0 .182-.131.516-.384 1.022a3.705 3.705 0 00-.375 1.669c0 .243.142.851.446 1.781.293.931.404 1.578.313 1.912-.06 1.103-.192 2.763-.384 4.978 1.791 2.813 4.674 5.11 8.671 6.891 5.514 2.55 8.651 4.088 9.42 4.604 2.124 1.518 4.29 3.733 6.506 6.627 2.367 3.147 3.561 5.696 3.561 7.649v0z" stroke="#FDC500" stroke-width=".289"/><path d="M373.537 431.709c-.769-.769-1.153-1.234-1.153-1.396h-2.165c0 1.265.172 2.58.516 3.936.414-1.69 1.345-2.54 2.802-2.54zm-5.868 3.177c-.678.436-1.184.517-1.518.264.668-.688 1.012-1.528 1.012-2.55-1.012.516-1.619 1.487-1.791 2.924a31.247 31.247 0 00-.121 2.681h-.769c-.506 1.103-.243 2.469.769 4.078 1.608-2.459 2.418-4.928 2.418-7.397zm21.025-48.019c1.437 0 2.712.425 3.815 1.274 1.102.85 1.659 1.832 1.659 2.925 0 .516-.132 1.234-.385 2.165-.242 1.194-.425 2.033-.506 2.55-.344.172-.89.556-1.649 1.143-.091 0-.354.05-.769.131h-4.462c-.425 0-.89.112-1.396.314-.516.213-.981.324-1.406.324-.344 0-.8-.213-1.397-.638-.344-.172-.647.041-.89.638-.344-.334-.86-.557-1.538-.638-.506-.081-1.143-.081-1.912 0-1.022.081-1.609.132-1.781.132-.435 0-1.073.081-1.973.253-.89.162-1.508.253-1.842.253 0 1.77-.182 4.462-.505 8.044-.344 3.591-.527 5.473-.527 5.645 0 6.506.729 10.098 2.176 10.776.172.081 1.022.121 2.539.121h5.484c0 1.275.122 2.044.375 2.297.263-.253.394-1.022.394-2.297.162 0 .597.385 1.265 1.144.263-.415.395-.8.395-1.144h5.473c1.69 1.528 2.54 3.309 2.54 5.353 0 3.652-1.042 5.484-3.116 5.484-.506 0-1.032.101-1.569.303-.546.223-.941.324-1.183.324-3.754.344-8.044.344-12.881 0-.495.263-.961.688-1.365 1.285v4.088c-.78-.253-1.154.091-1.154 1.022 0 .263.172 1.113.516 2.57.334 1.447.466 2.509.385 3.187-.425 6.243-.294 11.565.374 15.996.172 1.366 1.669 2.054 4.492 2.054 6.314 0 11.282.213 14.864.638 0 .334.192 1.103.576 2.286.385 1.194.577 2.034.577 2.55 0 1.275-.263 2.418-.759 3.44-.85 1.7-2.297 2.54-4.34 2.54-.506 0-4.483.091-11.909.263-7.437.162-11.353.253-11.788.253-1.952 0-3.146-2.125-3.561-6.374-.172-.931-.263-3.643-.263-8.145l1.406-27.774c.091.253.294.627.638 1.143.344-.263.516-.597.516-1.022 0-.506-.425-.769-1.275-.769 0-.587.759-1.265 2.286-2.034 0-1.011-.253-1.274-.758-.758-.85 0-1.275.394-1.275 1.143-1.022-17.16-1.538-27.895-1.538-32.236 0-4.239.647-8.489 1.912-12.738 2.803 0 7.396-.041 13.76-.122l13.255.638z" fill="#FDC500"/><path d="M373.537 431.709c-.769-.769-1.153-1.234-1.153-1.396h-2.165c0 1.265.172 2.58.516 3.936.414-1.69 1.345-2.54 2.802-2.54zm-5.868 3.177c-.678.436-1.184.517-1.518.264.668-.688 1.012-1.528 1.012-2.55-1.012.516-1.619 1.487-1.791 2.924a31.247 31.247 0 00-.121 2.681h-.769c-.506 1.103-.243 2.469.769 4.078 1.608-2.459 2.418-4.928 2.418-7.397v0zm21.025-48.019c1.437 0 2.712.425 3.815 1.274 1.102.85 1.659 1.832 1.659 2.925 0 .516-.132 1.234-.385 2.165-.242 1.194-.425 2.033-.506 2.55-.344.172-.89.556-1.649 1.143-.091 0-.354.05-.769.131h-4.462c-.425 0-.89.112-1.396.314-.516.213-.981.324-1.406.324-.344 0-.8-.213-1.397-.638-.344-.172-.647.041-.89.638-.344-.334-.86-.557-1.538-.638-.506-.081-1.143-.081-1.912 0-1.022.081-1.609.132-1.781.132-.435 0-1.073.081-1.973.253-.89.162-1.508.253-1.842.253 0 1.77-.182 4.462-.505 8.044-.344 3.591-.527 5.473-.527 5.645 0 6.506.729 10.098 2.176 10.776.172.081 1.022.121 2.539.121h5.484c0 1.275.122 2.044.375 2.297.263-.253.394-1.022.394-2.297.162 0 .597.385 1.265 1.144.263-.415.395-.8.395-1.144h5.473c1.69 1.528 2.54 3.309 2.54 5.353 0 3.652-1.042 5.484-3.116 5.484-.506 0-1.032.101-1.569.303-.546.223-.941.324-1.183.324-3.754.344-8.044.344-12.881 0-.495.263-.961.688-1.365 1.285v4.088c-.78-.253-1.154.091-1.154 1.022 0 .263.172 1.113.516 2.57.334 1.447.466 2.509.385 3.187-.425 6.243-.294 11.565.374 15.996.172 1.366 1.669 2.054 4.492 2.054 6.314 0 11.282.213 14.864.638 0 .334.192 1.103.576 2.286.385 1.194.577 2.034.577 2.55 0 1.275-.263 2.418-.759 3.44-.85 1.7-2.297 2.54-4.34 2.54-.506 0-4.483.091-11.909.263-7.437.162-11.353.253-11.788.253-1.952 0-3.146-2.125-3.561-6.374-.172-.931-.263-3.643-.263-8.145l1.406-27.774c.091.253.294.627.638 1.143.344-.263.516-.597.516-1.022 0-.506-.425-.769-1.275-.769 0-.587.759-1.265 2.286-2.034 0-1.011-.253-1.274-.758-.758-.85 0-1.275.394-1.275 1.143-1.022-17.16-1.538-27.895-1.538-32.236 0-4.239.647-8.489 1.912-12.738 2.803 0 7.396-.041 13.76-.122l13.255.638z" stroke="#FDC500" stroke-width=".289"/></svg>